<svg width="510" height="1150" viewBox="0 0 510 1150" fill="none" xmlns="http://www.w3.org/2000/svg">
<rect x="292" y="300.004" width="169.711" height="16.8907" rx="8.44534" transform="rotate(-45 292 300.004)" fill="#FDE433"/>
<rect x="375" y="425.34" width="169.711" height="16.8907" rx="8.44534" transform="rotate(-43.7418 375 425.34)" fill="#FDE433"/>
<rect x="91" y="239.002" width="338" height="18.4939" rx="9.24697" transform="rotate(-45 91 239.002)" fill="#FEE600"/>
<rect x="509.079" y="16.0772" width="338" height="18.4939" rx="9.24697" transform="rotate(135 509.079 16.0772)" fill="#FDE433"/>
<rect x="321" y="1011.13" width="222.22" height="15.8338" rx="7.91688" transform="rotate(-45 321 1011.13)" fill="#FDE433"/>
<rect x="307.667" y="1042.2" width="151.986" height="15.8338" rx="7.91688" transform="rotate(135 307.667 1042.2)" fill="#FDE433"/>
<rect y="497.002" width="338" height="21.3483" rx="10.6742" transform="rotate(-45 0 497.002)" fill="#FDE433"/>
<rect x="181.309" y="863.312" width="338" height="20.4574" rx="10.2287" transform="rotate(-45 181.309 863.312)" fill="#FDE433"/>
<rect x="217" y="1010.21" width="277.485" height="16.0049" rx="8.00246" transform="rotate(-45 217 1010.21)" fill="#FDE433"/>
<rect x="308" y="1123.67" width="131.049" height="16.0049" rx="8.00246" transform="rotate(-45 308 1123.67)" fill="#FDE433"/>
</svg>
